# xmcd
#
# Track frame offsets:
#	151
#	12367
#	33592
#	54840
#	70625
#	88774
#	104288
#	123112
#	141303
#	158985
#
# Disc length: 2307 seconds
# Revision: 0
# Processed by: cddbd v1.5.2PL0 Copyright (c) Steve Scherf et al.
# Submitted via: dBpowerAMP V12.0
#
DISCID=7d09010a
DTITLE=Les Close - Working Man
DYEAR=1900
DGENRE=Country
TTITLE0=No More Lonely
TTITLE1=Working Man
TTITLE2=Red Dresses
TTITLE3=My Side Of The Story
TTITLE4=Look At Us
TTITLE5=You're My Best Friend
TTITLE6=Love Never Broke Antone's Heart
TTITLE7=El Tigre
TTITLE8=Blue Eyes Crying In The Rain
TTITLE9=There Goes My Heart
EXTD=
EXTT0=
EXTT1=
EXTT2=
EXTT3=
EXTT4=
EXTT5=
EXTT6=
EXTT7=
EXTT8=
EXTT9=
PLAYORDER=
